<?xml version="1.0" encoding="utf-8"?>
<!-- Generator: Adobe Illustrator 24.0.3, SVG Export Plug-In . SVG Version: 6.00 Build 0)  -->
<svg version="1.1"
	 id="svg340" xmlns:cc="http://creativecommons.org/ns#" xmlns:dc="http://purl.org/dc/elements/1.1/" xmlns:inkscape="http://www.inkscape.org/namespaces/inkscape" xmlns:rdf="http://www.w3.org/1999/02/22-rdf-syntax-ns#" xmlns:sodipodi="http://sodipodi.sourceforge.net/DTD/sodipodi-0.dtd" xmlns:svg="http://www.w3.org/2000/svg"
	 xmlns="http://www.w3.org/2000/svg" xmlns:xlink="http://www.w3.org/1999/xlink" x="0px" y="0px" viewBox="0 0 595.3 841.9"
	 style="enable-background:new 0 0 595.3 841.9;" xml:space="preserve">
<style type="text/css">
	.st0{fill:none;stroke:#231F20;stroke-width:0.25;stroke-linejoin:bevel;stroke-miterlimit:10;}
	.st1{fill-rule:evenodd;clip-rule:evenodd;fill:#332C2B;}
</style>
<sodipodi:namedview  bordercolor="#666666" borderopacity="1" gridtolerance="10" guidetolerance="10" id="namedview342" inkscape:current-layer="svg340" inkscape:cx="627.27763" inkscape:cy="536.71396" inkscape:document-rotation="0" inkscape:pageopacity="0" inkscape:pageshadow="2" inkscape:window-height="907" inkscape:window-maximized="0" inkscape:window-width="1600" inkscape:window-x="1920" inkscape:window-y="23" inkscape:zoom="0.61168853" objecttolerance="10" pagecolor="#ffffff" showgrid="false">
	</sodipodi:namedview>
<path id="path15" class="st0" d="M94.7,67.7c0-3.6-2.9-6.6-6.6-6.6c-3.6,0-6.6,2.9-6.6,6.6s2.9,6.6,6.6,6.6
	C91.8,74.3,94.7,71.3,94.7,67.7z"/>
<path id="path17" class="st0" d="M117.4,67.4c0-3.6-2.9-6.6-6.6-6.6c-3.6,0-6.6,2.9-6.6,6.6s2.9,6.6,6.6,6.6S117.4,71,117.4,67.4z"
	/>
<path id="path19" class="st0" d="M94.7,90.4c0-3.6-2.9-6.6-6.6-6.6c-3.6,0-6.6,2.9-6.6,6.6c0,3.6,2.9,6.6,6.6,6.6
	C91.8,96.9,94.7,94,94.7,90.4z"/>
<path id="path21" class="st0" d="M117.4,90c0-3.6-2.9-6.6-6.6-6.6c-3.6,0-6.6,2.9-6.6,6.6s2.9,6.6,6.6,6.6S117.4,93.7,117.4,90z"/>
<path id="path23" class="st0" d="M94.7,113c0-3.6-2.9-6.6-6.6-6.6c-3.6,0-6.6,2.9-6.6,6.6s2.9,6.6,6.6,6.6
	C91.8,119.6,94.7,116.7,94.7,113z"/>
<path id="path25" class="st0" d="M117.4,112.7c0-3.6-2.9-6.6-6.6-6.6c-3.6,0-6.6,2.9-6.6,6.6s2.9,6.6,6.6,6.6
	C114.5,119.3,117.4,116.4,117.4,112.7z"/>
<path id="path27" class="st0" d="M94.7,135.7c0-3.6-2.9-6.6-6.6-6.6c-3.6,0-6.6,2.9-6.6,6.6c0,3.6,2.9,6.6,6.6,6.6
	C91.8,142.3,94.7,139.4,94.7,135.7z"/>
<path id="path29" class="st0" d="M117.4,135.4c0-3.6-2.9-6.6-6.6-6.6c-3.6,0-6.6,2.9-6.6,6.6c0,3.7,2.9,6.6,6.6,6.6
	S117.4,139,117.4,135.4z"/>
<path id="path31" class="st0" d="M94.7,158.4c0-3.6-2.9-6.6-6.6-6.6c-3.6,0-6.6,2.9-6.6,6.6c0,3.6,2.9,6.6,6.6,6.6
	C91.8,165,94.7,162,94.7,158.4z"/>
<path id="path33" class="st0" d="M117.4,158.1c0-3.6-2.9-6.6-6.6-6.6c-3.6,0-6.6,2.9-6.6,6.6c0,3.7,2.9,6.6,6.6,6.6
	C114.5,164.7,117.4,161.7,117.4,158.1z"/>
<path id="path35" class="st0" d="M94.7,181.1c0-3.6-2.9-6.6-6.6-6.6c-3.6,0-6.6,2.9-6.6,6.6s2.9,6.6,6.6,6.6
	C91.8,187.7,94.7,184.7,94.7,181.1z"/>
<path id="path37" class="st0" d="M117.4,180.7c0-3.6-2.9-6.6-6.6-6.6c-3.6,0-6.6,2.9-6.6,6.6c0,3.7,2.9,6.6,6.6,6.6
	S117.4,184.4,117.4,180.7z"/>
<path id="path39" class="st0" d="M94.7,203.8c0-3.6-2.9-6.6-6.6-6.6c-3.6,0-6.6,2.9-6.6,6.6c0,3.6,2.9,6.6,6.6,6.6
	C91.8,210.3,94.7,207.4,94.7,203.8z"/>
<path id="path41" class="st0" d="M117.4,203.4c0-3.6-2.9-6.6-6.6-6.6c-3.6,0-6.6,2.9-6.6,6.6c0,3.7,2.9,6.6,6.6,6.6
	S117.4,207.1,117.4,203.4z"/>
<path id="path43" class="st0" d="M162.8,67.6c0-3.6-3-6.6-6.6-6.6c-3.7,0-6.6,3-6.6,6.6c0,3.7,2.9,6.6,6.6,6.6
	C159.8,74.2,162.8,71.3,162.8,67.6"/>
<path id="path45" class="st0" d="M185.4,67.6c0-3.6-3-6.6-6.6-6.6c-3.7,0-6.6,3-6.6,6.6c0,3.7,2.9,6.6,6.6,6.6
	S185.4,71.3,185.4,67.6"/>
<path id="path47" class="st0" d="M208.1,67.6c0-3.6-3-6.6-6.6-6.6c-3.7,0-6.6,3-6.6,6.6c0,3.7,2.9,6.6,6.6,6.6
	C205.1,74.2,208.1,71.3,208.1,67.6"/>
<path id="path49" class="st0" d="M230.8,67.6c0-3.6-3-6.6-6.6-6.6c-3.7,0-6.6,3-6.6,6.6c0,3.7,2.9,6.6,6.6,6.6
	C227.8,74.2,230.8,71.3,230.8,67.6"/>
<path id="path51" class="st0" d="M253.5,67.6c0-3.6-3-6.6-6.6-6.6c-3.7,0-6.6,3-6.6,6.6c0,3.7,2.9,6.6,6.6,6.6
	C250.5,74.2,253.5,71.3,253.5,67.6"/>
<path id="path53" class="st0" d="M276.2,67.6c0-3.6-3-6.6-6.6-6.6c-3.7,0-6.6,3-6.6,6.6c0,3.7,2.9,6.6,6.6,6.6
	C273.2,74.2,276.2,71.3,276.2,67.6"/>
<path id="path55" class="st0" d="M253.5,90.3c0-3.6-3-6.6-6.6-6.6c-3.7,0-6.6,3-6.6,6.6c0,3.7,2.9,6.6,6.6,6.6
	C250.5,96.9,253.5,94,253.5,90.3"/>
<path id="path57" class="st0" d="M276.2,90.3c0-3.6-3-6.6-6.6-6.6c-3.7,0-6.6,3-6.6,6.6c0,3.7,2.9,6.6,6.6,6.6
	C273.2,96.9,276.2,94,276.2,90.3"/>
<path id="path59" class="st0" d="M253.5,113c0-3.6-3-6.6-6.6-6.6c-3.7,0-6.6,3-6.6,6.6c0,3.7,2.9,6.6,6.6,6.6
	C250.5,119.6,253.5,116.6,253.5,113"/>
<path id="path61" class="st0" d="M276.2,113c0-3.6-3-6.6-6.6-6.6c-3.7,0-6.6,3-6.6,6.6c0,3.7,2.9,6.6,6.6,6.6
	C273.2,119.6,276.2,116.6,276.2,113"/>
<path id="path63" class="st0" d="M253.5,135.7c0-3.6-3-6.6-6.6-6.6c-3.7,0-6.6,3-6.6,6.6c0,3.7,2.9,6.6,6.6,6.6
	C250.5,142.3,253.5,139.3,253.5,135.7"/>
<path id="path65" class="st0" d="M276.2,135.7c0-3.6-3-6.6-6.6-6.6c-3.7,0-6.6,3-6.6,6.6c0,3.7,2.9,6.6,6.6,6.6
	C273.2,142.3,276.2,139.3,276.2,135.7"/>
<path id="path67" class="st0" d="M253.5,158.3c0-3.6-3-6.6-6.6-6.6c-3.7,0-6.6,3-6.6,6.6c0,3.7,2.9,6.6,6.6,6.6
	C250.5,164.9,253.5,162,253.5,158.3"/>
<path id="path69" class="st0" d="M276.2,158.3c0-3.6-3-6.6-6.6-6.6c-3.7,0-6.6,3-6.6,6.6c0,3.7,2.9,6.6,6.6,6.6
	C273.2,164.9,276.2,162,276.2,158.3"/>
<path id="path71" class="st0" d="M253.5,181c0-3.6-3-6.6-6.6-6.6c-3.7,0-6.6,3-6.6,6.6c0,3.7,2.9,6.6,6.6,6.6
	C250.5,187.6,253.5,184.7,253.5,181"/>
<path id="path73" class="st0" d="M276.2,181c0-3.6-3-6.6-6.6-6.6c-3.7,0-6.6,3-6.6,6.6c0,3.7,2.9,6.6,6.6,6.6
	C273.2,187.6,276.2,184.7,276.2,181"/>
<path id="path75" class="st0" d="M253.5,203.7c0-3.6-3-6.6-6.6-6.6c-3.7,0-6.6,3-6.6,6.6c0,3.7,2.9,6.6,6.6,6.6
	C250.5,210.3,253.5,207.4,253.5,203.7"/>
<path id="path77" class="st0" d="M276.2,203.7c0-3.6-3-6.6-6.6-6.6c-3.7,0-6.6,3-6.6,6.6c0,3.7,2.9,6.6,6.6,6.6
	C273.2,210.3,276.2,207.4,276.2,203.7"/>
<path id="path79" class="st0" d="M162.8,203.7c0-3.6-3-6.6-6.6-6.6c-3.7,0-6.6,3-6.6,6.6c0,3.7,2.9,6.6,6.6,6.6
	C159.8,210.3,162.8,207.4,162.8,203.7"/>
<path id="path81" class="st0" d="M185.4,203.7c0-3.6-3-6.6-6.6-6.6c-3.7,0-6.6,3-6.6,6.6c0,3.7,2.9,6.6,6.6,6.6
	S185.4,207.4,185.4,203.7"/>
<path id="path83" class="st0" d="M208.1,203.7c0-3.6-3-6.6-6.6-6.6c-3.7,0-6.6,3-6.6,6.6c0,3.7,2.9,6.6,6.6,6.6
	C205.1,210.3,208.1,207.4,208.1,203.7"/>
<path id="path85" class="st0" d="M230.8,203.7c0-3.6-3-6.6-6.6-6.6c-3.7,0-6.6,3-6.6,6.6c0,3.7,2.9,6.6,6.6,6.6
	C227.8,210.3,230.8,207.4,230.8,203.7"/>
<path id="path87" class="st0" d="M295.7,205c0-2.3-1.9-4.2-4.2-4.2c-2.3,0-4.2,1.9-4.2,4.2s1.9,4.2,4.2,4.2
	C293.9,209.2,295.7,207.3,295.7,205z M295.7,66.1c0-2.3-1.9-4.2-4.2-4.2c-2.3,0-4.2,1.9-4.2,4.2c0,2.3,1.9,4.2,4.2,4.2
	C293.8,70.3,295.7,68.4,295.7,66.1"/>
<path id="path89" class="st0" d="M131.3,205c0-2.3-1.9-4.2-4.2-4.2s-4.2,1.9-4.2,4.2s1.9,4.2,4.2,4.2
	C129.5,209.2,131.3,207.3,131.3,205z M131.3,66.1c0-2.3-1.9-4.2-4.2-4.2s-4.2,1.9-4.2,4.2c0,2.3,1.9,4.2,4.2,4.2
	C129.4,70.3,131.3,68.4,131.3,66.1z"/>
<path id="path91" class="st0" d="M181.9,219.4c0-1.6-1.3-2.9-2.9-2.9c-1.6,0-2.9,1.3-2.9,2.9c0,1.6,1.3,2.9,2.9,2.9
	C180.6,222.3,181.9,221,181.9,219.4z"/>
<path id="path93" class="st0" d="M308.9,203.4c0-1.6-1.3-2.9-2.9-2.9s-2.9,1.3-2.9,2.9c0,1.6,1.3,2.9,2.9,2.9
	C307.6,206.3,308.9,205,308.9,203.4z"/>
<path id="path95" class="st0" d="M308.6,68.6c0-1.6-1.3-2.9-2.9-2.9s-2.9,1.3-2.9,2.9s1.3,2.9,2.9,2.9
	C307.3,71.5,308.6,70.2,308.6,68.6z"/>
<path id="path97" class="st0" d="M181.9,52.4c0-1.6-1.3-2.9-2.9-2.9c-1.6,0-2.9,1.3-2.9,2.9c0,1.6,1.3,2.9,2.9,2.9
	C180.6,55.3,181.9,54,181.9,52.4z"/>
<path id="path99" class="st0" d="M57.2,135.6c0-1.6-1.3-2.9-2.9-2.9c-1.6,0-3,1.3-3,2.9c0,1.6,1.3,2.9,3,2.9
	C55.9,138.6,57.2,137.2,57.2,135.6z"/>
<path id="path101" class="st0" d="M311.9,154h-8.8l0.1,35.4h8.6V225h-44.2v-8.5h-54.4v8.5H146v-8.5l-55.8-0.1v8.6H48.6l0.1-35.6h8.5
	V154h-8.5v-37.1h8.5V81.4h-8.5L49,46.5h41.3l0.1,8.4h55.8v-8.5H212v8.4h55.8v-8.5h44.1v35h-8.5v35.5h8.7c0,0,0,9.3,0,18.5
	 M311.9,135.4c0,9.2,0,18.4,0,18.5l0,0"/>
<path id="path103" class="st0" d="M68.8,76.8H70V68c0.3,0.3,0.7,0.6,1.1,1c0.5,0.3,0.9,0.5,1.3,0.7v-1.3c-0.7-0.4-1.3-0.8-1.8-1.3
	s-0.9-1-1.1-1.5h-0.8v11.2L68.8,76.8L68.8,76.8z"/>
<path id="path105" class="st0" d="M259,377.3c0,3.6,2.9,6.5,6.5,6.5s6.5-2.9,6.5-6.5s-2.9-6.5-6.5-6.5
	C261.9,370.7,259,373.6,259,377.3z"/>
<path id="path107" class="st0" d="M236.4,377.3c0,3.6,2.9,6.5,6.5,6.5s6.5-2.9,6.5-6.5s-2.9-6.5-6.5-6.5S236.4,373.6,236.4,377.3z"
	/>
<path id="path109" class="st0" d="M213.7,377.3c0,3.6,2.9,6.5,6.5,6.5s6.5-2.9,6.5-6.5s-2.9-6.5-6.5-6.5
	C216.6,370.7,213.7,373.6,213.7,377.3z"/>
<path id="path111" class="st0" d="M259,354.6c0,3.6,2.9,6.5,6.5,6.5s6.5-2.9,6.5-6.5s-2.9-6.5-6.5-6.5C261.9,348,259,351,259,354.6z
	"/>
<path id="path113" class="st0" d="M236.4,354.6c0,3.6,2.9,6.5,6.5,6.5s6.5-2.9,6.5-6.5s-2.9-6.5-6.5-6.5S236.4,351,236.4,354.6z"/>
<path id="path115" class="st0" d="M213.7,354.6c0,3.6,2.9,6.5,6.5,6.5s6.5-2.9,6.5-6.5s-2.9-6.5-6.5-6.5
	C216.6,348,213.7,351,213.7,354.6z"/>
<path id="path117" class="st0" d="M299.3,333.9c0,1.6,1.3,2.9,2.9,2.9s2.9-1.3,2.9-2.9s-1.3-2.9-2.9-2.9S299.3,332.3,299.3,333.9z"
	/>
<path id="path119" class="st0" d="M180.1,365.1H60.8V321h119.4L180.1,365.1L180.1,365.1z"/>
<path id="path121" class="st0" d="M181.3,388.5c1.2-0.1,0.1,1.1-0.1,0.3h-2.8v7.9l0,0h31.4v8.5h53v-8.5h45.4v-20.5h-8.5v-22.1h8.5
	v-40.3h-8.5v-41.7h8.6l0.1-29.3H262v-8.5h-51.7v8.5h-31.9v7.9h2.6c0-0.1,0.2-0.1,0.4-0.1c0.3,0.1,0.7,0.3-0.1,0.5v4.9h-2.8v2h-5.7
	v-2h-2.9c0,0,0-2.7,0-4.9h-0.1c-0.1,0-0.1-0.1-0.1-0.1l0,0c0.1-0.2,0.5-0.5,0.5-0.2h2.6v-8h-32.4v-8.6H88.8v8.5H53.5v136.9h7.6v-2.4
	c-0.9,0,0.5-1.4,0.5-0.5h4.9v2.9h3.2v5.7h-3.2v2.9h-5c0,1.2-1.3-0.5-0.4-0.5v-2.4h-7.6v11.2h34.7v8.5h53v-8.5h31.5v-7.9H170
	c0,0-0.1,0.4-0.3,0.4c-0.3,0-0.8-0.7-0.3-0.9c0.1,0,0.3,0,0.5,0v-5h2.8v-1.8h5.7v1.9h3L181.3,388.5L181.3,388.5z"/>
<path id="path123" class="st0" d="M156.1,308l1.4,0.1c0.1-0.5,0.2-1,0.5-1.4c0.2-0.3,0.6-0.6,1.1-0.9c0.5-0.2,1-0.3,1.7-0.3
	c0.5,0,1,0.1,1.4,0.3c0.4,0.2,0.7,0.4,1,0.7c0.2,0.3,0.3,0.6,0.3,1c0,0.3-0.1,0.6-0.3,0.9s-0.5,0.5-1,0.7c-0.3,0.1-0.9,0.3-1.9,0.5
	s-1.7,0.5-2.1,0.7c-0.5,0.3-0.9,0.6-1.2,1s-0.4,0.9-0.4,1.4s0.1,1.1,0.5,1.5c0.3,0.5,0.8,0.9,1.4,1.1c0.6,0.3,1.2,0.4,2,0.4
	s1.5-0.1,2.2-0.4c0.6-0.3,1.1-0.6,1.4-1.1c0.3-0.5,0.5-1.1,0.5-1.7l-1.4-0.1c-0.1,0.7-0.3,1.2-0.7,1.6c-0.5,0.3-1.1,0.5-1.9,0.5
	s-1.5-0.1-1.9-0.5c-0.4-0.3-0.6-0.7-0.6-1.2c0-0.4,0.1-0.7,0.4-1s1-0.5,2.2-0.8s2-0.5,2.4-0.7c0.7-0.3,1.1-0.7,1.4-1.1
	c0.3-0.5,0.5-1,0.5-1.6s-0.2-1.1-0.5-1.6s-0.8-0.9-1.4-1.2c-0.6-0.3-1.3-0.4-2.1-0.4c-1,0-1.8,0.1-2.5,0.5c-0.7,0.3-1.2,0.7-1.6,1.3
	C156.3,306.6,156.1,307.3,156.1,308z"/>
<path id="path125" class="st0" d="M173.3,305.8v-1.3h-7.2c0,0.3,0.1,0.6,0.2,0.9c0.2,0.5,0.5,1,0.9,1.4c0.4,0.5,1,1,1.8,1.6
	c1.2,1,2,1.8,2.4,2.3c0.4,0.6,0.6,1.1,0.6,1.6s-0.2,1-0.6,1.4c-0.4,0.4-0.9,0.5-1.5,0.5c-0.7,0-1.2-0.2-1.6-0.6
	c-0.4-0.4-0.6-0.9-0.6-1.6l-1.4,0.1c0.1,1,0.5,1.8,1.1,2.4c0.6,0.5,1.4,0.8,2.5,0.8c1,0,1.9-0.3,2.5-0.9s0.9-1.3,0.9-2.2
	c0-0.4-0.1-0.9-0.3-1.3s-0.5-0.9-0.9-1.4s-1.1-1.1-2.1-1.9c-0.8-0.7-1.3-1.2-1.6-1.4c-0.2-0.2-0.4-0.5-0.6-0.7h5.5L173.3,305.8
	L173.3,305.8z"/>
<path id="path127" class="st0" d="M108.7,308.4l1.4,0.1c0.1-0.5,0.2-1,0.5-1.3c0.2-0.4,0.6-0.7,1.1-0.9c0.5-0.2,1-0.3,1.7-0.3
	c0.6,0,1,0.1,1.5,0.3s0.7,0.4,0.9,0.7c0.2,0.3,0.3,0.6,0.3,0.9s-0.1,0.6-0.3,0.9c-0.2,0.3-0.5,0.5-1,0.7c-0.3,0.1-1,0.3-2,0.5
	c-1,0.3-1.7,0.5-2.1,0.7c-0.5,0.3-0.9,0.6-1.2,1s-0.4,0.9-0.4,1.4c0,0.6,0.1,1.1,0.5,1.6s0.8,0.8,1.4,1.1c0.6,0.3,1.2,0.4,2,0.4
	s1.5-0.1,2.2-0.4c0.6-0.3,1.1-0.7,1.4-1.2s0.5-1.1,0.5-1.7l-1.4-0.1c-0.1,0.7-0.3,1.2-0.8,1.6c-0.4,0.3-1.1,0.5-1.9,0.5
	c-0.9,0-1.5-0.1-1.9-0.5c-0.4-0.3-0.6-0.7-0.6-1.1s0.1-0.7,0.4-1s1-0.5,2.2-0.8s2-0.5,2.4-0.7c0.7-0.3,1.1-0.7,1.4-1.1
	c0.3-0.5,0.5-1,0.5-1.6s-0.2-1.1-0.5-1.6s-0.8-0.9-1.4-1.2c-0.6-0.3-1.3-0.5-2.1-0.5c-1,0-1.8,0.1-2.5,0.5c-0.7,0.3-1.2,0.7-1.6,1.3
	C108.9,307,108.7,307.6,108.7,308.4z"/>
<path id="path129" class="st0" d="M123.8,304.8h-1.3v8.6c-0.3-0.3-0.8-0.6-1.3-0.9s-1-0.5-1.4-0.7v1.3c0.7,0.3,1.4,0.8,2,1.3
	s1,1,1.2,1.4h0.9L123.8,304.8L123.8,304.8z"/>
<path id="path131" class="st0" d="M86.6,304.5l-4.2,10.9h-1.6l-4.5-10.9H78l1.3,3.3h4.6l1.2-3.3H86.6z"/>
<path id="path133" class="st0" d="M83.4,309h-3.7l1.2,3c0.3,0.9,0.6,1.7,0.8,2.3c0.1-0.7,0.3-1.4,0.6-2.1L83.4,309z"/>
<path id="path135" class="st0" d="M75.2,304.5v10.9H73l-2.6-7.7c-0.2-0.7-0.4-1.2-0.5-1.6c-0.1,0.4-0.3,1-0.6,1.8l-2.6,7.6h-2v-10.9
	h1.4v9.2l3.2-9.2h1.3l3.2,9.3v-9.3L75.2,304.5L75.2,304.5z"/>
<path id="path137" class="st0" d="M84.5,379.2v-1.5h-8.3c0,0.4,0.1,0.7,0.2,1c0.2,0.6,0.5,1.1,1,1.7c0.5,0.5,1.1,1.2,2,1.9
	c1.4,1.1,2.3,2,2.7,2.6s0.7,1.3,0.7,1.8c0,0.6-0.2,1.1-0.7,1.6c-0.4,0.4-1,0.6-1.7,0.6s-1.3-0.2-1.8-0.7s-0.7-1-0.7-1.8l-1.6,0.2
	c0.1,1.2,0.5,2.1,1.2,2.7s1.7,0.9,2.9,0.9s2.1-0.3,2.8-1c0.7-0.7,1-1.5,1-2.5c0-0.5-0.1-1-0.3-1.5c-0.2-0.5-0.5-1-1-1.5
	s-1.2-1.3-2.4-2.2c-0.9-0.8-1.5-1.3-1.8-1.6c-0.3-0.3-0.5-0.5-0.7-0.8L84.5,379.2L84.5,379.2z"/>
<path id="path139" class="st0" d="M438.3,208H389v89.6h53.7V331h51.1v-99h-55.4v-24H438.3z"/>
<path id="path141" class="st0" d="M377.9,334.9c-1.6,0-2.9,1.3-2.9,2.9s1.3,2.9,2.9,2.9s2.9-1.3,2.9-2.9
	C380.8,336.2,379.5,334.9,377.9,334.9z"/>
<path id="path143" class="st0" d="M370.8,250.2v-2.6c-0.5,0-0.5-0.3-0.3-0.5c0.2-0.3,0.6-0.5,0.6,0h5v3h2.9v5.7h-3l0.1,2.8h-4.8
	c0,0.9-0.9,0.1-0.9,0.1c-0.1-0.2,0.1-0.3,0.4-0.3v-2.6h-7.7v17h-8.5v32.7h8.5v38h154.5v-38h8.5v-32.7h-8.5v-17.1h-7.8v2.5
	c0.7-0.3-0.7,1.8-0.7,0.6c0-0.1,0-0.1,0-0.2h-4.5v-2.9h-2.7V250h2.7v-2.9h4.8c0-1.2,1.2,0.4,0.6,0.4v2.6h7.6V233h8.5v-32.5h-8.5
	v-27.1h-30.9v-8.5h-38.8v8.5h-18.5v7.7h2.6c-0.1-0.8,1,0.3,0.4,0.5v4.8h-3v3.1h-5.7v-3.1h-2.9v-4.7c-1.5,0,0.4-1.7,0.4-0.6h2.6v-7.6
	h-18.9V165h-19.2v8.5h-22.5v27.1h-8.5V233h8.5v17.3h7.6V250.2z"/>
<path id="path145" class="st0" d="M448.9,226.4h45.3c0.8,0,1.5-0.3,2-0.9c0.5-0.5,0.8-1.2,0.8-2v-39.7c0-0.7-0.3-1.5-0.8-2
	s-1.2-0.8-2-0.8h-45.3c-0.8,0-1.5,0.3-2,0.8s-0.9,1.3-0.9,2v39.7c0,0.8,0.3,1.5,0.9,2C447.4,226.1,448.2,226.4,448.9,226.4z"/>
<path id="path147" class="st0" d="M409.4,301H398v2.3l8.1,2.7c0.7,0.3,1.3,0.5,1.7,0.6c-0.4,0.1-1,0.3-1.8,0.6l-8,2.8v2.1h11.4v-1.5
	h-9.6l9.6-3.4v-1.4l-9.7-3.4h9.7L409.4,301L409.4,301z"/>
<path id="path149" class="st0" d="M409.4,314.5H398v4.4c0,0.9,0.1,1.6,0.3,2.1c0.2,0.5,0.6,1,1.1,1.3s1,0.5,1.5,0.5s0.9-0.1,1.4-0.4
	c0.4-0.3,0.8-0.7,1-1.2c0.2,0.7,0.5,1.2,1,1.6s1.1,0.6,1.7,0.6c0.5,0,1-0.1,1.5-0.3c0.5-0.2,0.8-0.5,1-0.9c0.3-0.3,0.5-0.8,0.6-1.3
	s0.2-1.1,0.2-1.9L409.4,314.5L409.4,314.5z"/>
<path id="path151" class="st0" d="M402.8,316v2.5c0,0.7-0.1,1.2-0.1,1.5c-0.1,0.4-0.3,0.7-0.6,0.9s-0.6,0.3-1,0.3s-0.7-0.1-1-0.3
	c-0.3-0.2-0.5-0.5-0.6-0.8s-0.2-0.9-0.2-1.8V316H402.8z"/>
<path id="path153" class="st0" d="M408.1,316v2.9c0,0.5,0,0.9-0.1,1c-0.1,0.4-0.2,0.7-0.3,0.9c-0.1,0.2-0.4,0.4-0.7,0.6
	c-0.3,0.2-0.6,0.3-1,0.3s-0.8-0.1-1.1-0.3c-0.3-0.2-0.5-0.5-0.7-0.9c-0.1-0.4-0.2-1-0.2-1.7V316H408.1z"/>
<path id="path155" class="st0" d="M409,182.8h-11.2v2.2l7.9,2.6c0.7,0.2,1.3,0.4,1.6,0.5c-0.4,0.1-1,0.3-1.8,0.6l-7.8,2.6v2H409V192
	h-9.4l9.4-3.2v-1.3l-9.5-3.2h9.5V182.8z"/>
<path id="path157" class="st0" d="M405,203.6l0.4,1.5c1.2-0.3,2.1-0.9,2.8-1.6c0.7-0.8,1-1.8,1-2.9c0-1.2-0.3-2.2-0.7-2.9
	c-0.5-0.8-1.2-1.3-2.1-1.7s-2-0.6-3-0.6c-1.2,0-2.2,0.2-3.1,0.7s-1.5,1.1-2,1.9c-0.5,0.8-0.7,1.7-0.7,2.7c0,1.1,0.3,2,0.9,2.8
	c0.6,0.7,1.4,1.3,2.4,1.6l0.4-1.4c-0.8-0.3-1.4-0.6-1.8-1.1s-0.6-1.1-0.6-1.8c0-0.9,0.2-1.6,0.6-2.1c0.4-0.6,1-1,1.7-1.2
	c0.7-0.3,1.4-0.4,2.1-0.4c1,0,1.8,0.1,2.5,0.4c0.7,0.3,1.2,0.7,1.6,1.3c0.3,0.6,0.5,1.2,0.5,1.9c0,0.8-0.2,1.5-0.7,2.1
	C406.7,203,406,203.4,405,203.6z"/>
<path id="path159" class="st0" d="M378.1,190l-0.2,1.1c0.8,0.1,1.3,0.3,1.7,0.7c0.3,0.3,0.5,0.7,0.5,1.2s-0.2,1-0.7,1.3
	c-0.5,0.4-1,0.6-1.7,0.6c-0.6,0-1.1-0.2-1.5-0.5s-0.6-0.8-0.6-1.3c0-0.2,0.1-0.5,0.1-0.8l-1.2,0.1c0,0.1,0,0.1,0,0.2
	c0,0.5-0.2,0.9-0.5,1.3c-0.3,0.4-0.8,0.6-1.4,0.6c-0.5,0-0.9-0.1-1.2-0.4c-0.3-0.3-0.5-0.7-0.5-1.1c0-0.5,0.2-0.8,0.5-1.1
	s0.9-0.5,1.5-0.6l-0.2-1.1c-0.9,0.1-1.6,0.5-2.1,0.9c-0.5,0.5-0.8,1.1-0.8,1.8c0,0.5,0.1,1,0.4,1.4s0.6,0.8,1.1,1
	c0.4,0.2,0.9,0.3,1.4,0.3s0.9-0.1,1.3-0.3s0.7-0.5,1-1c0.1,0.6,0.5,1,0.9,1.3c0.5,0.3,1.1,0.4,1.8,0.4c1,0,1.8-0.3,2.5-0.9
	c0.7-0.6,1-1.3,1-2.2c0-0.8-0.3-1.5-0.9-2C379.8,190.4,379,190.1,378.1,190z"/>
<path id="path161" class="st0" d="M179.6,673.8c0-1.4-0.5-3.1,0.8-4.1s4.3-1.1,6.1-1.1H217c1.8,0,4.7,0.1,6,1.1s0.9,2.7,0.9,4.1
	v15.1c0,1.4,0.4,3.1-0.9,4.1c-1.3,1-4.2,1.1-6,1.1h-30.5c-1.8,0-4.8-0.1-6.1-1.1c-1.2-0.6-0.8-2.6-0.8-4.1L179.6,673.8L179.6,673.8z
	"/>
<path id="path163" class="st0" d="M45.9,676.4c0-1.6-1.3-2.9-2.9-2.9c-1.6,0-2.9,1.3-2.9,2.9c0,1.6,1.3,2.9,2.9,2.9
	C44.6,679.4,45.9,678,45.9,676.4z"/>
<path id="path165" class="st0" d="M219.3,633.3c0-3.6-2.9-6.6-6.6-6.6c-3.6,0-6.6,2.9-6.6,6.6c0,3.7,2.9,6.6,6.6,6.6
	C216.4,639.9,219.3,636.9,219.3,633.3z"/>
<path id="path167" class="st0" d="M242,633.3c0-3.6-2.9-6.6-6.6-6.6c-3.6,0-6.6,2.9-6.6,6.6c0,3.7,2.9,6.6,6.6,6.6
	C239.1,639.9,242,636.9,242,633.3z"/>
<path id="path169" class="st0" d="M264.7,633.3c0-3.6-2.9-6.6-6.6-6.6c-3.6,0-6.6,2.9-6.6,6.6c0,3.7,2.9,6.6,6.6,6.6
	C261.8,639.9,264.7,636.9,264.7,633.3z"/>
<path id="path171" class="st0" d="M242,655.9c0-3.6-2.9-6.6-6.6-6.6c-3.6,0-6.6,2.9-6.6,6.6c0,3.7,2.9,6.6,6.6,6.6
	S242,659.6,242,655.9z"/>
<path id="path173" class="st0" d="M264.7,655.9c0-3.6-2.9-6.6-6.6-6.6c-3.6,0-6.6,2.9-6.6,6.6c0,3.7,2.9,6.6,6.6,6.6
	C261.8,662.5,264.7,659.6,264.7,655.9z"/>
<path id="path175" class="st0" d="M297.6,676.6c0-1.6-1.3-2.9-2.9-2.9s-2.9,1.3-2.9,2.9c0,1.6,1.3,2.9,2.9,2.9
	S297.6,678.2,297.6,676.6z"/>
<path id="path177" class="st0" d="M242.2,730.6c0-1.5,0.6-2.9,1.6-4c1-1,2.5-1.6,4-1.7h25.1c1.5,0,2.9,0.6,4,1.7
	c1.1,1,1.7,2.5,1.7,4V747c0,1.5-0.6,2.9-1.7,4c-1,1.1-2.5,1.7-4,1.7h-25.1c-1.5,0-2.9-0.6-4-1.7c-1-1-1.6-2.5-1.6-4L242.2,730.6
	L242.2,730.6z"/>
<path id="path181" class="st0" d="M127.1,721.9h22.7v22.7h-22.7C127.1,744.6,127.1,721.9,127.1,721.9z"/>
<path id="path183" class="st0" d="M50.4,645.3v43.4h120.2v-43.4H50.4z"/>
<path id="path185" class="st0" d="M162.6,760.3C162.5,760.3,162.5,760.3,162.6,760.3c-0.1,0.1-0.1,0.1-0.2,0.1
	c-0.2,0-0.3-0.1-0.3-0.2v-0.1c0-0.1,0-0.3,0.1-0.3s0.1,0,0.1,0.1V755h2.7v-2h5.7v2h2.9v4.7c0.3,0,0.3,0.2,0.3,0.3s-0.1,0.2-0.2,0.3
	c-0.2,0.2-0.6,0.3-0.6,0.1h-2.5v7.9h32.8v8.5H255v-8.5h45.4l-0.1-29.9H292v-41.7h8.5v-40.3h-8.6l0.1-22.1h8.5v-21.2h-45.3v-8.5h-53
	v8.5h-31.5v7.9h2.4c-0.1-0.2,0-0.4,0.1-0.5c0.1,0,0.2-0.1,0.3-0.1c0.4,0.1,0.9,0.6,0.3,0.8v5.1h-3v2.1H165v-2.1h-2.7v-5.1
	c-0.1,0-0.2,0-0.3-0.1c0-0.1-0.1-0.1-0.1-0.2c0-0.1,0.1-0.3,0.3-0.3c0.1-0.1,0.4,0,0.5,0.3h2.4V613h-31.5v-8.5h-53v8.5H37.5v21.1H46
	v22h-8.5v40.3H46V738h-8.5v30h43.1v8.5h53V768h31.5v-7.9h-2.5V760.3z"/>
<path id="path187" class="st0" d="M168.1,702.1l-1.2-0.1c-0.1,0.6-0.2,1-0.4,1.4c-0.2,0.3-0.5,0.6-1,0.9c-0.4,0.2-0.9,0.3-1.5,0.3
	c-0.5,0-0.9-0.1-1.3-0.2c-0.4-0.2-0.7-0.4-0.9-0.7s-0.3-0.6-0.3-0.9c0-0.3,0.1-0.7,0.3-0.9s0.5-0.5,0.9-0.7c0.3-0.1,0.8-0.3,1.7-0.5
	s1.5-0.5,1.8-0.7c0.5-0.3,0.8-0.6,1-1s0.3-0.9,0.3-1.4c0-0.6-0.1-1.1-0.4-1.6s-0.7-0.9-1.2-1.1c-0.5-0.2-1.1-0.4-1.8-0.4
	s-1.3,0.1-1.9,0.4c-0.6,0.3-1,0.7-1.3,1.2s-0.4,1.1-0.5,1.7l1.2,0.1c0.1-0.7,0.3-1.2,0.7-1.6c0.4-0.3,0.9-0.5,1.7-0.5
	s1.3,0.2,1.7,0.5c0.3,0.3,0.5,0.7,0.5,1.2c0,0.4-0.1,0.7-0.4,1c-0.3,0.3-0.9,0.5-1.9,0.8s-1.7,0.5-2.1,0.7c-0.5,0.3-1,0.7-1.2,1.1
	c-0.3,0.5-0.4,1-0.4,1.6s0.1,1.1,0.4,1.7c0.3,0.5,0.7,0.9,1.3,1.2c0.5,0.3,1.2,0.4,1.8,0.4c0.9,0,1.6-0.1,2.2-0.4
	c0.6-0.3,1-0.7,1.4-1.3C167.9,703.5,168.1,702.8,168.1,702.1z"/>
<path id="path189" class="st0" d="M159.2,702.7l-1.2-0.2c-0.1,0.8-0.4,1.3-0.7,1.6s-0.7,0.5-1.2,0.5c-0.6,0-1-0.2-1.4-0.7
	c-0.4-0.4-0.6-1-0.6-1.6s0.2-1.1,0.5-1.5s0.8-0.6,1.4-0.6c0.2,0,0.5,0.1,0.8,0.2l-0.1-1.2c-0.1,0-0.1,0-0.2,0
	c-0.5,0-0.9-0.1-1.3-0.4c-0.4-0.3-0.6-0.8-0.6-1.4c0-0.5,0.2-0.9,0.5-1.2s0.7-0.5,1.1-0.5c0.5,0,0.9,0.2,1.1,0.5
	c0.3,0.3,0.5,0.8,0.6,1.5l1.2-0.2c-0.1-0.9-0.5-1.6-1-2.1s-1.1-0.7-1.9-0.7c-0.5,0-1,0.1-1.4,0.4c-0.5,0.3-0.8,0.6-1,1
	c-0.2,0.5-0.3,0.9-0.3,1.4s0.1,0.9,0.3,1.3c0.2,0.4,0.6,0.7,1,0.9c-0.6,0.1-1,0.5-1.3,0.9c-0.3,0.5-0.5,1-0.5,1.8
	c0,1,0.3,1.8,0.9,2.4c0.6,0.7,1.4,1,2.3,1c0.9,0,1.6-0.3,2.1-0.9C158.8,704.4,159.1,703.6,159.2,702.7z"/>
<path id="path191" class="st0" d="M119.1,702.1l-1.3-0.1c-0.1,0.5-0.2,1-0.4,1.4c-0.2,0.3-0.5,0.6-1,0.9c-0.5,0.2-1,0.3-1.6,0.3
	c-0.5,0-1-0.1-1.3-0.3c-0.4-0.1-0.7-0.4-0.9-0.7c-0.2-0.3-0.3-0.6-0.3-1c0-0.3,0.1-0.6,0.3-0.9c0.2-0.3,0.5-0.5,0.9-0.7
	c0.3-0.1,0.9-0.3,1.8-0.5c0.9-0.3,1.6-0.5,2-0.7c0.5-0.3,0.9-0.6,1.1-1c0.3-0.4,0.4-0.9,0.4-1.4s-0.1-1-0.4-1.5s-0.7-0.9-1.3-1.1
	c-0.6-0.3-1.2-0.4-1.9-0.4c-0.7,0-1.4,0.1-2,0.4c-0.6,0.3-1,0.6-1.3,1.1s-0.5,1.1-0.5,1.7l1.3,0.1c0.1-0.7,0.3-1.2,0.7-1.6
	c0.4-0.4,1-0.5,1.8-0.5s1.4,0.2,1.8,0.5s0.5,0.7,0.5,1.2c0,0.4-0.1,0.7-0.4,1s-0.9,0.5-2,0.8s-1.8,0.5-2.2,0.7
	c-0.6,0.3-1,0.7-1.3,1.1c-0.3,0.5-0.4,1-0.4,1.6s0.2,1.1,0.5,1.6s0.8,0.9,1.3,1.2c0.6,0.3,1.2,0.4,2,0.4c0.9,0,1.7-0.1,2.3-0.4
	c0.6-0.3,1.1-0.7,1.4-1.3C118.9,703.5,119.1,702.8,119.1,702.1z"/>
<path id="path193" class="st0" d="M105.8,705.6V703h4.4v-1.2l-4.6-7.1h-1v7.1h-1.4v1.2h1.4v2.6H105.8z"/>
<path id="path195" class="st0" d="M105.8,700.3v-4.9l3.1,4.9H105.8z"/>
<path id="path197" class="st0" d="M77.8,706.5v-11.2h-2l-2.4,7.9c-0.2,0.7-0.4,1.3-0.5,1.6c-0.1-0.4-0.3-1-0.5-1.8l-2.4-7.8h-2v11.2
	h1.3v-9.3l3,9.3h1.2l2.9-9.5v9.5L77.8,706.5L77.8,706.5z"/>
<path id="path199" class="st0" d="M65.8,706.5v-11.2h-3.5c-0.8,0-1.4,0.1-1.8,0.2c-0.6,0.1-1.1,0.4-1.5,0.8
	c-0.5,0.5-0.9,1.1-1.2,1.9c-0.3,0.8-0.4,1.6-0.4,2.6c0,0.9,0.1,1.6,0.3,2.3s0.4,1.2,0.7,1.6c0.3,0.4,0.6,0.8,0.9,1
	c0.3,0.2,0.8,0.4,1.2,0.5c0.5,0.1,1,0.2,1.6,0.2h3.7V706.5z"/>
<path id="path201" class="st0" d="M64.5,705.1h-2.2c-0.7,0-1.2-0.1-1.6-0.2c-0.4-0.1-0.7-0.3-0.9-0.6c-0.3-0.3-0.6-0.8-0.7-1.4
	s-0.3-1.3-0.3-2.2c0-1.2,0.2-2,0.5-2.7c0.3-0.6,0.8-1,1.3-1.2c0.4-0.1,0.9-0.2,1.8-0.2h2.1V705.1z"/>
<path id="path203" class="st0" d="M54.2,631.1v-2.7h4.3v-1.3l-4.5-7.3h-1v7.3h-1.3v1.3H53v2.7H54.2z"/>
<path id="path205" class="st0" d="M54.2,627.1V622l3.1,5.1H54.2z"/>
<path id="path207" class="st0" d="M288.1,563.3c1.1,0,2.1,0.3,2.8,0.8c0.7,0.5,1.1,1.1,1.1,1.9c0,0.5-0.3,1.1-0.7,1.6l3.2-0.5v-3.4
	h1.4v4.2l-6.2,0.8l-0.2-1c0.3-0.1,0.6-0.4,0.9-0.6c0.2-0.3,0.3-0.6,0.3-0.9c0-0.5-0.2-1-0.7-1.3s-1.2-0.5-2-0.5
	c-0.9,0-1.6,0.2-2.1,0.5s-0.8,0.8-0.8,1.3c0,0.4,0.2,0.8,0.6,1.1s1,0.5,1.7,0.5l-0.1,1.1c-1-0.1-1.8-0.3-2.4-0.9
	c-0.6-0.5-0.9-1.1-0.9-1.9c0-0.9,0.5-1.7,1.4-2.2C286,563.6,287,563.3,288.1,563.3z"/>
<path id="path209" class="st0" d="M54.1,500.1c0-1.6-1.3-3-3-3c-1.6,0-2.9,1.3-2.9,3c0,1.6,1.3,2.9,2.9,2.9
	C52.8,503,54.1,501.7,54.1,500.1z"/>
<path id="path211" class="st0" d="M305.7,499.9c0-1.6-1.3-2.9-2.9-2.9s-2.9,1.3-2.9,2.9s1.3,2.9,2.9,2.9S305.7,501.5,305.7,499.9z"
	/>
<path id="path213" class="st0" d="M178.5,416.4c0-1.6-1.3-2.9-2.9-2.9c-1.6,0-2.9,1.3-2.9,2.9s1.3,2.9,2.9,2.9
	C177.1,419.4,178.5,418,178.5,416.4z"/>
<path id="path215" class="st0" d="M179,582.8c0-1.6-1.3-2.9-2.9-2.9c-1.6,0-2.9,1.3-2.9,2.9c0,1.6,1.3,2.9,2.9,2.9
	S179,584.4,179,582.8z"/>
<path id="path217" class="st0" d="M93.7,431.7c0-3.6-2.9-6.5-6.5-6.5s-6.5,2.9-6.5,6.5s2.9,6.5,6.5,6.5S93.7,435.3,93.7,431.7z"/>
<path id="path219" class="st0" d="M116.4,431.7c0-3.6-2.9-6.5-6.5-6.5s-6.5,2.9-6.5,6.5s2.9,6.5,6.5,6.5S116.4,435.3,116.4,431.7z"
	/>
<path id="path221" class="st0" d="M139.1,431.7c0-3.6-2.9-6.5-6.5-6.5s-6.5,2.9-6.5,6.5s2.9,6.5,6.5,6.5
	C136.2,438.2,139.1,435.3,139.1,431.7z"/>
<path id="path223" class="st0" d="M161.8,431.7c0-3.6-2.9-6.5-6.5-6.5s-6.5,2.9-6.5,6.5s2.9,6.5,6.5,6.5
	C158.9,438.2,161.8,435.3,161.8,431.7z"/>
<path id="path225" class="st0" d="M184.5,431.7c0-3.6-2.9-6.5-6.5-6.5s-6.5,2.9-6.5,6.5s2.9,6.5,6.5,6.5
	C181.5,438.2,184.5,435.3,184.5,431.7z"/>
<path id="path227" class="st0" d="M93.7,454.4c0-3.6-2.9-6.5-6.5-6.5s-6.5,2.9-6.5,6.5s2.9,6.5,6.5,6.5S93.7,458,93.7,454.4z"/>
<path id="path229" class="st0" d="M116.4,454.4c0-3.6-2.9-6.5-6.5-6.5s-6.5,2.9-6.5,6.5s2.9,6.5,6.5,6.5S116.4,458,116.4,454.4z"/>
<path id="path231" class="st0" d="M93.7,477c0-3.6-2.9-6.5-6.5-6.5s-6.5,2.9-6.5,6.5s2.9,6.5,6.5,6.5S93.7,480.6,93.7,477z"/>
<path id="path233" class="st0" d="M116.4,477c0-3.6-2.9-6.5-6.5-6.5s-6.5,2.9-6.5,6.5s2.9,6.5,6.5,6.5
	C113.5,483.6,116.4,480.6,116.4,477z"/>
<path id="path235" class="st0" d="M93.7,499.7c0-3.6-2.9-6.5-6.5-6.5s-6.5,2.9-6.5,6.5s2.9,6.5,6.5,6.5S93.7,503.3,93.7,499.7z"/>
<path id="path237" class="st0" d="M116.4,499.7c0-3.6-2.9-6.5-6.5-6.5s-6.5,2.9-6.5,6.5s2.9,6.5,6.5,6.5S116.4,503.3,116.4,499.7z"
	/>
<path id="path239" class="st0" d="M93.7,522.4c0-3.6-2.9-6.5-6.5-6.5s-6.5,2.9-6.5,6.5s2.9,6.5,6.5,6.5S93.7,526,93.7,522.4z"/>
<path id="path241" class="st0" d="M116.4,522.4c0-3.6-2.9-6.5-6.5-6.5s-6.5,2.9-6.5,6.5s2.9,6.5,6.5,6.5S116.4,526,116.4,522.4z"/>
<path id="path243" class="st0" d="M93.7,545.1c0-3.6-2.9-6.5-6.5-6.5s-6.5,2.9-6.5,6.5s2.9,6.5,6.5,6.5S93.7,548.7,93.7,545.1z"/>
<path id="path245" class="st0" d="M116.4,545.1c0-3.6-2.9-6.5-6.5-6.5s-6.5,2.9-6.5,6.5s2.9,6.5,6.5,6.5S116.4,548.7,116.4,545.1z"
	/>
<path id="path247" class="st0" d="M93.7,567.8c0-3.6-2.9-6.5-6.5-6.5s-6.5,2.9-6.5,6.5s2.9,6.5,6.5,6.5S93.7,571.4,93.7,567.8z"/>
<path id="path249" class="st0" d="M116.4,567.8c0-3.6-2.9-6.5-6.5-6.5s-6.5,2.9-6.5,6.5s2.9,6.5,6.5,6.5S116.4,571.4,116.4,567.8z"
	/>
<path id="path251" class="st0" d="M274.7,431.7c0-3.6-2.9-6.5-6.5-6.5s-6.5,2.9-6.5,6.5s2.9,6.5,6.5,6.5
	C271.8,438.2,274.7,435.3,274.7,431.7z"/>
<path id="path253" class="st0" d="M252,431.7c0-3.6-2.9-6.5-6.5-6.5s-6.5,2.9-6.5,6.5s2.9,6.5,6.5,6.5S252,435.3,252,431.7z"/>
<path id="path255" class="st0" d="M229.4,431.7c0-3.6-2.9-6.5-6.5-6.5s-6.5,2.9-6.5,6.5s2.9,6.5,6.5,6.5
	C226.4,438.2,229.4,435.3,229.4,431.7z"/>
<path id="path257" class="st0" d="M206.7,431.7c0-3.6-2.9-6.5-6.5-6.5s-6.5,2.9-6.5,6.5s2.9,6.5,6.5,6.5S206.7,435.3,206.7,431.7z"
	/>
<path id="path259" class="st0" d="M274.7,454.4c0-3.6-2.9-6.5-6.5-6.5s-6.5,2.9-6.5,6.5s2.9,6.5,6.5,6.5
	C271.8,460.9,274.7,458,274.7,454.4z"/>
<path id="path261" class="st0" d="M252,454.4c0-3.6-2.9-6.5-6.5-6.5s-6.5,2.9-6.5,6.5s2.9,6.5,6.5,6.5S252,458,252,454.4z"/>
<path id="path263" class="st0" d="M274.7,477c0-3.6-2.9-6.5-6.5-6.5s-6.5,2.9-6.5,6.5s2.9,6.5,6.5,6.5
	C271.8,483.6,274.7,480.7,274.7,477z"/>
<path id="path265" class="st0" d="M252,477c0-3.6-2.9-6.5-6.5-6.5s-6.5,2.9-6.5,6.5s2.9,6.5,6.5,6.5C249.1,483.6,252,480.7,252,477z
	"/>
<path id="path267" class="st0" d="M274.7,499.7c0-3.6-2.9-6.5-6.5-6.5s-6.5,2.9-6.5,6.5s2.9,6.5,6.5,6.5
	C271.8,506.3,274.7,503.3,274.7,499.7z"/>
<path id="path269" class="st0" d="M252,499.7c0-3.6-2.9-6.5-6.5-6.5s-6.5,2.9-6.5,6.5s2.9,6.5,6.5,6.5
	C249.1,506.3,252,503.3,252,499.7z"/>
<path id="path271" class="st0" d="M274.7,522.4c0-3.6-2.9-6.5-6.5-6.5s-6.5,2.9-6.5,6.5s2.9,6.5,6.5,6.5
	C271.8,528.9,274.7,526,274.7,522.4z"/>
<path id="path273" class="st0" d="M252,522.4c0-3.6-2.9-6.5-6.5-6.5s-6.5,2.9-6.5,6.5s2.9,6.5,6.5,6.5S252,526,252,522.4z"/>
<path id="path275" class="st0" d="M274.7,545.1c0-3.6-2.9-6.5-6.5-6.5s-6.5,2.9-6.5,6.5s2.9,6.5,6.5,6.5
	C271.8,551.6,274.7,548.7,274.7,545.1z"/>
<path id="path277" class="st0" d="M252,545.1c0-3.6-2.9-6.5-6.5-6.5s-6.5,2.9-6.5,6.5s2.9,6.5,6.5,6.5S252,548.7,252,545.1z"/>
<path id="path279" class="st0" d="M274.7,567.8c0-3.6-2.9-6.5-6.5-6.5s-6.5,2.9-6.5,6.5s2.9,6.5,6.5,6.5
	C271.8,574.3,274.7,571.4,274.7,567.8z"/>
<path id="path281" class="st0" d="M252,567.8c0-3.6-2.9-6.5-6.5-6.5s-6.5,2.9-6.5,6.5s2.9,6.5,6.5,6.5S252,571.4,252,567.8z"/>
<path id="path283" class="st0" d="M229.6,567.8c0-3.6-2.9-6.5-6.5-6.5s-6.5,2.9-6.5,6.5s2.9,6.5,6.5,6.5
	C226.7,574.3,229.6,571.4,229.6,567.8z"/>
<path id="path285" class="st0" d="M207,567.8c0-3.6-2.9-6.5-6.5-6.5s-6.5,2.9-6.5,6.5s2.9,6.5,6.5,6.5
	C204,574.3,207,571.4,207,567.8z"/>
<polygon id="polygon287" class="st0" points="219,497.9 225,497.9 225,503.7 219,503.7 "/>
<polygon id="polygon289" class="st0" points="210.2,503.8 210.2,525.1 179,525.2 178.8,476.2 210.2,476.2 210.2,497.9 216,497.9 
	216,503.8 "/>
<polygon id="polygon291" class="st0" points="184,481.8 204.5,481.8 204.5,519.6 184,519.6 "/>
<polygon id="polygon293" class="st0" points="193.7,491.9 199.1,491.9 199.1,497.3 193.7,497.3 "/>
<polygon id="polygon295" class="st0" points="193.5,504.6 199.2,504.6 199.2,509.9 193.5,509.9 "/>
<polygon id="polygon297" class="st0" points="172.5,487.9 172.6,493.7 147.8,493.8 147.8,487.9 165.1,487.9 157.9,481 162.1,477.2 
	"/>
<polygon id="polygon299" class="st0" points="172.3,513.9 172.3,508 147.9,508 147.9,513.9 164.2,513.9 157.7,519.8 162.3,524.1 "/>
<path id="path5533-6-3" inkscape:connector-curvature="0" class="st0" d="M170.5,522.1c-0.4,0-0.7,2.3-0.7,5.1 M174.6,522.1h-4.1
	 M169.8,572.1c0,2.8,0.3,5.1,0.7,5.1 M169.8,527.2V572 M174.6,577.2c0.4,0,0.8-2.3,0.8-5.1 M170.5,577.2h4.1 M175.3,527.2
	c0-2.8-0.3-5.1-0.8-5.1 M175.3,572.1v-44.8"/>
<path id="path302" class="st0" d="M493.1,497.7h11.1V458h-11.1V497.7L493.1,497.7z"/>
<path id="path304" class="st0" d="M509.8,550.7c0.1,0.5,0.5,0.5,0.6,0.3c0-0.1,0.1-0.1,0.1-0.2c0.2-0.3,0.3-0.5-0.1-0.5v-2.6h7.9
	V558l-30.8-0.1v8.6l-38.8-0.1v-9.9H430v-7.7h2.6c0,0.1,0,0.1,0,0.2c0.2,0.3,0.7-0.3,0.3-0.6v-4.9H430v-3.1l-5.6-0.1v3.2h-3v4.9
	c-0.9-0.3,0.5,1.6,0.3,0.5h2.7v7.7h-18.9v9.9h-19.2v-8.3h-22.6v-28h-8.5V497h8.5v-17h7.9v2.5c-0.7,0,0.5,1.8,0.5,0.5h4.9v-2.9h1.9
	v-5.7H377v-2.9h-4.8c0-0.9-1.9,0.5-0.5,0.5v2.4h-7.9v-16.5h-8.5v-33.2h8.5v-28.1h22.6v-8.5h19.2v9.9h18.8v7.6h-2.6
	c0-0.1-0.2-0.2-0.3-0.3c-0.2-0.1-0.5,0.3-0.5,0.7c0,0.2,0.1,0.4,0.4,0.2v4.8h2.9v3.3h5.7v-3.2h2.9v-4.6c1,0.2-0.2-1.9-0.4-0.8h-2.4
	V398h18.6v-10.1h38.8v8.8h30.8v10.8h-7.9v-2.4c1.8,0-1.6-1.7-0.7-0.5c-1.6,0-4.6,0-4.6,0v3h-2.3v5.6h2.5v3.1h4.1
	c-0.5,0.8,2.2,0.3,0.9-0.7v-2.3h8v11.6h8.5v32.7h-8.5V497h8.5v32.5h-8.5V542h-8v-2.4c0.5,0,0.3-0.4,0-0.7c-0.3-0.4-0.9-0.6-0.9,0.2
	c-2.9,0-4.5,0-4.5,0v2.9H503v5.7h1.9v3.1C505,550.7,507.8,550.7,509.8,550.7z"/>
<path id="path306" class="st0" d="M371.9,548.3l0.1-1.2c-0.5-0.1-0.9-0.3-1.2-0.5c-0.4-0.3-0.6-0.7-0.6-1.2c0-0.4,0.1-0.7,0.4-1
	c0.3-0.4,0.8-0.7,1.4-0.9s1.4-0.3,2.6-0.3c-0.5,0.3-0.9,0.7-1.1,1.1c-0.2,0.4-0.3,0.9-0.3,1.4c0,0.8,0.3,1.5,1,2.1s1.5,0.9,2.6,0.9
	c0.7,0,1.4-0.1,2-0.4c0.6-0.3,1-0.7,1.4-1.1c0.3-0.5,0.5-1,0.5-1.6c0-1-0.4-1.9-1.2-2.5c-0.8-0.7-2.2-1-4.1-1
	c-2.1,0-3.7,0.3-4.7,1.1c-0.9,0.6-1.3,1.4-1.3,2.5c0,0.8,0.3,1.4,0.7,1.9C370.4,547.9,371.1,548.2,371.9,548.3z"/>
<path id="path308" class="st0" d="M376.7,543.3c0.5,0,0.9,0.1,1.3,0.3c0.5,0.2,0.8,0.4,1,0.8c0.2,0.3,0.3,0.7,0.3,1
	c0,0.5-0.2,1-0.7,1.3c-0.5,0.4-1.1,0.6-1.9,0.6s-1.4-0.2-1.8-0.6c-0.4-0.4-0.7-0.8-0.7-1.4c0-0.6,0.2-1,0.7-1.4
	C375.4,543.5,376,543.3,376.7,543.3z"/>
<polygon id="polygon310" class="st0" points="405.4,423.1 441.7,423.1 441.7,453.6 405.4,453.6 "/>
<path id="path312" class="st0" d="M421.2,511.5c0,2.7,1,4.8,2.3,4.8"/>
<line id="line314" class="st0" x1="423.5" y1="516.3" x2="443.7" y2="516.3"/>
<path id="path316" class="st0" d="M446,485.9c0-2.7-1-4.8-2.3-4.8"/>
<path id="path318" class="st0" d="M423.5,481.1c-1.3,0-2.3,2.2-2.3,4.8"/>
<g id="_893551072">
	<line id="line320" class="st0" x1="421.2" y1="485.9" x2="421.2" y2="511.5"/>
	<path id="path322" class="st0" d="M443.7,516.3c1.3,0,2.3-2.1,2.3-4.8"/>
	<line id="line324" class="st0" x1="446" y1="511.5" x2="446" y2="485.9"/>
	<line id="line326" class="st0" x1="443.7" y1="481.1" x2="423.5" y2="481.1"/>
</g>
<path id="path329" class="st0" d="M161.9,567.8c0-3.6-2.9-6.5-6.5-6.5s-6.5,2.9-6.5,6.5s2.9,6.5,6.5,6.5S161.9,571.4,161.9,567.8z"
	/>
<path id="path331" class="st0" d="M139.2,567.8c0-3.6-2.9-6.5-6.5-6.5s-6.5,2.9-6.5,6.5s2.9,6.5,6.5,6.5S139.2,571.4,139.2,567.8z"
	/>
<path id="path333" class="st0" d="M308.5,518.1h-8.7l0.1,35.4h8.6v35.6h-44.2v-8.5h-54.4v8.5h-67.2v-8.5l-55.8-0.1v8.6H45.2
	l0.1-35.6h8.5v-35.4h-8.5V481h8.5v-35.5h-8.5l0.4-34.9h41.2L87,419h55.8v-8.5h65.8v8.4h55.8v-8.5h44v35h-8.5v35.5h8.7
	c0,0,0,9.3,0,18.5 M308.5,499.5c0,9.2,0,18.4,0,18.5l0,0"/>
<path id="path335" class="st1" d="M139.2,532.4v-2.7c0-0.7-0.1-1.2-0.2-1.5c-0.1-0.3-0.4-0.5-0.7-0.8c-0.3-0.2-0.7-0.3-1.1-0.3
	c-0.4,0-0.8,0.1-1.1,0.3s-0.5,0.4-0.7,0.7c-0.1-0.4-0.4-0.7-0.7-0.9s-0.8-0.3-1.2-0.3c-0.6,0-1.1,0.1-1.5,0.4
	c-0.4,0.3-0.7,0.6-0.8,1c-0.1,0.3-0.1,0.9-0.1,1.9v2.3h8.1V532.4z M137.8,531.1h-1.9v-0.9c0-0.5,0-0.9,0-1c0-0.2,0.1-0.4,0.3-0.5
	s0.4-0.2,0.7-0.2c0.2,0,0.4,0.1,0.6,0.1c0.1,0.1,0.2,0.3,0.3,0.4c0,0.1,0.1,0.6,0.1,1.3v0.8L137.8,531.1L137.8,531.1z M134.6,531.1
	h-2.2v-1.3c0-0.5,0-0.9,0.1-1c0.1-0.2,0.2-0.3,0.3-0.4s0.4-0.2,0.7-0.2s0.5,0.1,0.7,0.2s0.3,0.3,0.3,0.5c0.1,0.2,0.1,0.6,0.1,1.2
	L134.6,531.1L134.6,531.1z M131,523.9v1.3h5.9V524H136c0.4-0.2,0.7-0.4,0.8-0.6c0.1-0.1,0.2-0.3,0.2-0.5c0-0.3-0.1-0.6-0.3-0.9
	l-1.4,0.4c0.2,0.2,0.3,0.4,0.3,0.6c0,0.2-0.1,0.3-0.2,0.5c-0.1,0.1-0.4,0.2-0.7,0.3s-1,0.1-1.9,0.1L131,523.9L131,523.9z M137.7,521
	h1.4v-1.3h-1.4V521z M131,521h5.9v-1.3H131V521z M135.2,513.6l-0.3,1.3c0.6,0.1,0.9,0.4,0.9,0.9c0,0.3-0.1,0.6-0.4,0.8
	c-0.3,0.2-0.7,0.3-1.4,0.3s-1.2-0.1-1.5-0.3s-0.5-0.5-0.5-0.8c0-0.2,0.1-0.4,0.3-0.6c0.2-0.1,0.5-0.3,0.9-0.3l-0.3-1.3
	c-1.4,0.3-2.2,1-2.2,2.2c0,0.8,0.3,1.4,0.9,1.8c0.6,0.4,1.3,0.6,2.2,0.6c1,0,1.8-0.2,2.3-0.7c0.5-0.4,0.8-1,0.8-1.7
	c0-0.6-0.1-1-0.5-1.4C136.3,514,135.8,513.8,135.2,513.6z M131,512.2h8.2v-1.3h-4.3l2.1-1.5v-1.6l-2.2,1.6l-3.8-1.8v1.4l2.7,1.2
	l-0.8,0.6H131V512.2z M131,506.4h8.2v-2.2c0-0.8,0-1.3-0.1-1.6c-0.1-0.4-0.4-0.7-0.8-1c-0.4-0.3-1-0.4-1.6-0.4s-1.1,0.1-1.5,0.3
	c-0.4,0.2-0.7,0.5-0.9,0.8c-0.1,0.3-0.2,0.9-0.2,1.7v0.9H131V506.4z M137.8,505h-2.3v-0.7c0-0.5,0-0.9,0.1-1
	c0.1-0.2,0.2-0.3,0.4-0.5c0.2-0.1,0.4-0.2,0.7-0.2s0.5,0.1,0.7,0.2s0.3,0.3,0.4,0.5c0.1,0.2,0.1,0.5,0.1,1.1L137.8,505L137.8,505z
	 M137.7,499.7h1.4v-1.3h-1.4V499.7z M131,499.7h5.9v-1.3H131V499.7z M133.2,496.9l0.2-1.2c-0.4,0-0.7-0.1-0.9-0.3s-0.3-0.4-0.3-0.6
	c0-0.3,0.1-0.5,0.4-0.7c0.3-0.2,0.6-0.3,1-0.3s0.7,0.1,0.9,0.3c0.2,0.2,0.3,0.4,0.3,0.6s0,0.4-0.1,0.6l1.3-0.1
	c0-0.3,0.1-0.6,0.3-0.8c0.2-0.2,0.4-0.3,0.8-0.3c0.3,0,0.5,0.1,0.7,0.2s0.3,0.3,0.3,0.5s-0.1,0.4-0.3,0.6s-0.5,0.3-0.8,0.3l0.3,1.2
	c0.7-0.1,1.3-0.4,1.6-0.7c0.3-0.3,0.5-0.8,0.5-1.3c0-0.6-0.2-1.1-0.7-1.5c-0.4-0.3-0.9-0.5-1.4-0.5c-0.4,0-0.7,0.1-1,0.3
	s-0.5,0.4-0.8,0.7c-0.1-0.4-0.3-0.7-0.7-0.9c-0.3-0.2-0.8-0.3-1.3-0.3c-0.8,0-1.4,0.2-1.9,0.7s-0.7,1-0.7,1.6s0.2,1.1,0.6,1.5
	C131.9,496.5,132.4,496.8,133.2,496.9z M131,487l8.2,2.4V488l-6-1.7l6-1.6v-1.5l-8.2,2.4V487z M131,479v1.3h5.9
	c-0.5,0.5-0.9,1-1.2,1.6h1.4c0.1-0.3,0.4-0.7,0.8-1.1c0.4-0.4,0.8-0.7,1.3-0.8v-1H131z M131,476.2h1.6V475H131V476.2z M131,470.1
	v1.3h5.9c-0.5,0.5-0.9,1-1.2,1.6h1.4c0.1-0.3,0.4-0.7,0.8-1.1c0.4-0.4,0.8-0.7,1.3-0.8v-1H131z"/>
<path id="path337" class="st0" d="M219.3,655.9c0-3.6-3-6.6-6.6-6.6s-6.6,2.9-6.6,6.6c0,3.7,2.9,6.6,6.6,6.6
	S219.3,659.6,219.3,655.9z"/>
<polygon class="st0" points="161.3,719.1 161.3,744 199,744 199,752.7 236.8,752.7 236.8,744 236.8,719.1 "/>
</svg>
